# xmcd
#
# Track frame offsets:
#	150
#	12120
#	24572
#	37279
#	51568
#	64418
#	76895
#	90462
#	108389
#	123186
#	136043
#	149057
#	165356
#	176833
#	189917
#	200734
#	213316
#	225303
#
# Disc length: 3186 seconds
#
# Revision: 0
# Processed by: cddbd v1.4PL0 Copyright (c) Steve Scherf et al.
# Submitted via: dBpowerAMP V4.0
#
DISCID=f90c7012
DTITLE=MERLE HAGGARD - The Way I Am
DYEAR=1900
DGENRE=Country
TTITLE0=From Graceland To The Promised Land
TTITLE1=Everybody´s Had The Blues
TTITLE2=If We Make It Through December
TTITLE3=Always Wanting You
TTITLE4=Silver Wings
TTITLE5=I Take A Lot Of Pride In What I Am
TTITLE6=Holding Things Together
TTITLE7=I Think I´ll Just Stay Here And Drink
TTITLE8=I´m A Lonesome Fugitive
TTITLE9=I´m Always On A Mountain (When I Fall)
TTITLE10=It´s Been A Great Afternoon
TTITLE11=It´s not love (But It´s Not Bad)
TTITLE12=My Friends Are Gonna Be Strangers
TTITLE13=Sing Me Back Home
TTITLE14=Someday We´ll Look Back
TTITLE15=The Bottle Let Me Down
TTITLE16=Turnin´ Off A Memory
TTITLE17=The Way I Am
EXTD=
EXTT0=
EXTT1=
EXTT2=
EXTT3=
EXTT4=
EXTT5=
EXTT6=
EXTT7=
EXTT8=
EXTT9=
EXTT10=
EXTT11=
EXTT12=
EXTT13=
EXTT14=
EXTT15=
EXTT16=
EXTT17=
PLAYORDER=
